<mxfile host="app.diagrams.net" agent="Mozilla/5.0 (Macintosh; Intel Mac OS X 10_15_7) AppleWebKit/537.36 (KHTML, like Gecko) Chrome/131.0.0.0 Safari/537.36" version="25.0.1" pages="2">
  <diagram name="PECRUN - Read " id="13e1069c-82ec-6db2-03f1-153e76fe0fe0">
    <mxGraphModel dx="2905" dy="877" grid="1" gridSize="6" guides="1" tooltips="1" connect="1" arrows="1" fold="1" page="1" pageScale="1" pageWidth="1100" pageHeight="850" background="none" math="0" shadow="0">
      <root>
        <mxCell id="0" />
        <mxCell id="1" parent="0" />
        <mxCell id="7baba1c4bc27f4b0-2" value=":CL_FINS_TRR_CLOSE_FACTORY" style="shape=umlLifeline;perimeter=lifelinePerimeter;whiteSpace=wrap;html=1;container=1;collapsible=0;recursiveResize=0;outlineConnect=0;rounded=1;shadow=0;comic=0;labelBackgroundColor=none;strokeWidth=1;fontFamily=Verdana;fontSize=12;align=center;" parent="1" vertex="1">
          <mxGeometry x="-25" y="48" width="217" height="580" as="geometry" />
        </mxCell>
        <mxCell id="7baba1c4bc27f4b0-10" value="" style="html=1;points=[];perimeter=orthogonalPerimeter;rounded=0;shadow=0;comic=0;labelBackgroundColor=none;strokeWidth=1;fontFamily=Verdana;fontSize=12;align=center;" parent="7baba1c4bc27f4b0-2" vertex="1">
          <mxGeometry x="103.5" y="67" width="10" height="485" as="geometry" />
        </mxCell>
        <mxCell id="7baba1c4bc27f4b0-3" value=":CL_FINS_TRR_CLOSING_CONTROL" style="shape=umlLifeline;perimeter=lifelinePerimeter;whiteSpace=wrap;html=1;container=1;collapsible=0;recursiveResize=0;outlineConnect=0;rounded=1;shadow=0;comic=0;labelBackgroundColor=none;strokeWidth=1;fontFamily=Verdana;fontSize=12;align=center;" parent="1" vertex="1">
          <mxGeometry x="264" y="48" width="240" height="576" as="geometry" />
        </mxCell>
        <mxCell id="7baba1c4bc27f4b0-13" value="" style="html=1;points=[];perimeter=orthogonalPerimeter;rounded=0;shadow=0;comic=0;labelBackgroundColor=none;strokeWidth=1;fontFamily=Verdana;fontSize=12;align=center;" parent="7baba1c4bc27f4b0-3" vertex="1">
          <mxGeometry x="115" y="82" width="10" height="470" as="geometry" />
        </mxCell>
        <mxCell id="adKXQhIe3tN8fhiwJf8t-10" value="" style="html=1;points=[];perimeter=orthogonalPerimeter;rounded=0;shadow=0;comic=0;labelBackgroundColor=none;strokeWidth=1;fontFamily=Verdana;fontSize=12;align=center;" vertex="1" parent="7baba1c4bc27f4b0-3">
          <mxGeometry x="120" y="108" width="10" height="378" as="geometry" />
        </mxCell>
        <mxCell id="adKXQhIe3tN8fhiwJf8t-11" value="START_SERVICE" style="endArrow=classic;html=1;rounded=1;exitX=1.067;exitY=0.028;exitDx=0;exitDy=0;exitPerimeter=0;curved=0;" edge="1" parent="7baba1c4bc27f4b0-3" source="7baba1c4bc27f4b0-13">
          <mxGeometry x="-0.4205" y="12" width="50" height="50" relative="1" as="geometry">
            <mxPoint x="252" y="114" as="sourcePoint" />
            <mxPoint x="132" y="120" as="targetPoint" />
            <Array as="points">
              <mxPoint x="240" y="96" />
              <mxPoint x="240" y="120" />
            </Array>
            <mxPoint as="offset" />
          </mxGeometry>
        </mxCell>
        <mxCell id="adKXQhIe3tN8fhiwJf8t-12" value="ro_closing_control" style="html=1;verticalAlign=bottom;endArrow=open;dashed=1;endSize=8;labelBackgroundColor=none;fontFamily=Verdana;fontSize=12;exitX=0.9;exitY=1;exitDx=0;exitDy=0;exitPerimeter=0;rounded=1;curved=0;entryX=0.867;entryY=0.925;entryDx=0;entryDy=0;entryPerimeter=0;horizontal=1;align=left;" edge="1" parent="7baba1c4bc27f4b0-3">
          <mxGeometry x="0.076" relative="1" as="geometry">
            <mxPoint x="120.00000000000007" y="510.75" as="targetPoint" />
            <mxPoint x="125.33" y="486" as="sourcePoint" />
            <Array as="points">
              <mxPoint x="236.33" y="486" />
              <mxPoint x="236.33" y="511" />
            </Array>
            <mxPoint as="offset" />
          </mxGeometry>
        </mxCell>
        <mxCell id="adKXQhIe3tN8fhiwJf8t-23" value="mo_closing_co_obj = ro_closing_co_obj" style="html=1;verticalAlign=bottom;endArrow=open;dashed=1;endSize=8;labelBackgroundColor=none;fontFamily=Verdana;fontSize=12;" edge="1" parent="7baba1c4bc27f4b0-3">
          <mxGeometry x="0.0108" relative="1" as="geometry">
            <mxPoint x="132" y="468" as="targetPoint" />
            <mxPoint x="411" y="468" as="sourcePoint" />
            <Array as="points" />
            <mxPoint as="offset" />
          </mxGeometry>
        </mxCell>
        <mxCell id="7baba1c4bc27f4b0-4" value=":CL_FINS_TRR_CLOSING_CO_OBJ" style="shape=umlLifeline;perimeter=lifelinePerimeter;whiteSpace=wrap;html=1;container=1;collapsible=0;recursiveResize=0;outlineConnect=0;rounded=1;shadow=0;comic=0;labelBackgroundColor=none;strokeWidth=1;fontFamily=Verdana;fontSize=12;align=center;" parent="1" vertex="1">
          <mxGeometry x="576" y="48" width="216" height="580" as="geometry" />
        </mxCell>
        <mxCell id="7baba1c4bc27f4b0-16" value="" style="html=1;points=[];perimeter=orthogonalPerimeter;rounded=0;shadow=0;comic=0;labelBackgroundColor=none;strokeWidth=1;fontFamily=Verdana;fontSize=12;align=center;" parent="7baba1c4bc27f4b0-4" vertex="1">
          <mxGeometry x="98" y="138" width="10" height="330" as="geometry" />
        </mxCell>
        <mxCell id="7baba1c4bc27f4b0-34" value="" style="html=1;points=[];perimeter=orthogonalPerimeter;rounded=0;shadow=0;comic=0;labelBackgroundColor=none;strokeWidth=1;fontFamily=Verdana;fontSize=12;align=center;" parent="7baba1c4bc27f4b0-4" vertex="1">
          <mxGeometry x="103" y="160" width="10" height="134" as="geometry" />
        </mxCell>
        <mxCell id="7baba1c4bc27f4b0-35" value="READ_POSTING_DATA" style="html=1;verticalAlign=bottom;endArrow=block;labelBackgroundColor=none;fontFamily=Verdana;fontSize=12;elbow=vertical;edgeStyle=orthogonalEdgeStyle;curved=0;entryX=0.767;entryY=0.004;entryPerimeter=0;entryDx=0;entryDy=0;exitX=0.933;exitY=0.025;exitDx=0;exitDy=0;exitPerimeter=0;rounded=1;" parent="7baba1c4bc27f4b0-4" source="7baba1c4bc27f4b0-16" target="7baba1c4bc27f4b0-34" edge="1">
          <mxGeometry x="-0.4609" y="5" relative="1" as="geometry">
            <mxPoint x="234" y="114" as="sourcePoint" />
            <mxPoint x="206.49999999999994" y="274.7600000000001" as="targetPoint" />
            <Array as="points">
              <mxPoint x="107" y="144" />
              <mxPoint x="300" y="144" />
              <mxPoint x="300" y="161" />
            </Array>
            <mxPoint as="offset" />
          </mxGeometry>
        </mxCell>
        <mxCell id="adKXQhIe3tN8fhiwJf8t-14" value="EXTRACT_CUMMULATED_VALUES" style="html=1;verticalAlign=bottom;endArrow=block;labelBackgroundColor=none;fontFamily=Verdana;fontSize=12;elbow=vertical;edgeStyle=orthogonalEdgeStyle;curved=0;entryX=0.767;entryY=0.004;entryPerimeter=0;entryDx=0;entryDy=0;exitX=0.933;exitY=0.025;exitDx=0;exitDy=0;exitPerimeter=0;rounded=1;" edge="1" parent="7baba1c4bc27f4b0-4">
          <mxGeometry x="-0.4609" y="5" relative="1" as="geometry">
            <mxPoint x="108" y="330" as="sourcePoint" />
            <mxPoint x="112" y="342" as="targetPoint" />
            <Array as="points">
              <mxPoint x="163" y="330" />
              <mxPoint x="301" y="330" />
              <mxPoint x="301" y="342" />
            </Array>
            <mxPoint as="offset" />
          </mxGeometry>
        </mxCell>
        <mxCell id="adKXQhIe3tN8fhiwJf8t-15" value="" style="html=1;points=[];perimeter=orthogonalPerimeter;rounded=0;shadow=0;comic=0;labelBackgroundColor=none;strokeWidth=1;fontFamily=Verdana;fontSize=12;align=center;" vertex="1" parent="7baba1c4bc27f4b0-4">
          <mxGeometry x="103" y="336" width="10" height="114" as="geometry" />
        </mxCell>
        <mxCell id="7baba1c4bc27f4b0-7" value=":CL_FINS_TRR_CLOSE_COS_REV" style="shape=umlLifeline;perimeter=lifelinePerimeter;whiteSpace=wrap;html=1;container=1;collapsible=0;recursiveResize=0;outlineConnect=0;rounded=1;shadow=0;comic=0;labelBackgroundColor=none;strokeWidth=1;fontFamily=Verdana;fontSize=12;align=center;" parent="1" vertex="1">
          <mxGeometry x="1098" y="48" width="216" height="580" as="geometry" />
        </mxCell>
        <mxCell id="7baba1c4bc27f4b0-25" value="" style="html=1;points=[];perimeter=orthogonalPerimeter;rounded=0;shadow=0;comic=0;labelBackgroundColor=none;strokeColor=#000000;strokeWidth=1;fillColor=#FFFFFF;fontFamily=Verdana;fontSize=12;fontColor=#000000;align=center;" parent="7baba1c4bc27f4b0-7" vertex="1">
          <mxGeometry x="103" y="360" width="10" height="48" as="geometry" />
        </mxCell>
        <mxCell id="adKXQhIe3tN8fhiwJf8t-19" value="" style="html=1;points=[];perimeter=orthogonalPerimeter;rounded=0;shadow=0;comic=0;labelBackgroundColor=none;strokeColor=#000000;strokeWidth=1;fillColor=#FFFFFF;fontFamily=Verdana;fontSize=12;fontColor=#000000;align=center;" vertex="1" parent="7baba1c4bc27f4b0-7">
          <mxGeometry x="103" y="426" width="10" height="114" as="geometry" />
        </mxCell>
        <mxCell id="adKXQhIe3tN8fhiwJf8t-21" value="Process Actual postings" style="html=1;verticalAlign=bottom;endArrow=block;labelBackgroundColor=none;fontFamily=Verdana;fontSize=12;elbow=vertical;edgeStyle=orthogonalEdgeStyle;curved=0;exitX=0.933;exitY=0.025;exitDx=0;exitDy=0;exitPerimeter=0;rounded=1;" edge="1" parent="7baba1c4bc27f4b0-7">
          <mxGeometry x="-0.4824" relative="1" as="geometry">
            <mxPoint x="113" y="468" as="sourcePoint" />
            <mxPoint x="113" y="480" as="targetPoint" />
            <Array as="points">
              <mxPoint x="168" y="468" />
              <mxPoint x="306" y="468" />
              <mxPoint x="306" y="480" />
            </Array>
            <mxPoint as="offset" />
          </mxGeometry>
        </mxCell>
        <mxCell id="7baba1c4bc27f4b0-8" value=":CL_FINS_TRR_PECRUN_BASE" style="shape=umlLifeline;perimeter=lifelinePerimeter;whiteSpace=wrap;html=1;container=1;collapsible=0;recursiveResize=0;outlineConnect=0;rounded=1;shadow=0;comic=0;labelBackgroundColor=none;strokeWidth=1;fontFamily=Verdana;fontSize=12;align=center;" parent="1" vertex="1">
          <mxGeometry x="-288" y="48" width="190" height="580" as="geometry" />
        </mxCell>
        <mxCell id="7baba1c4bc27f4b0-9" value="PROCESS_OBJECT" style="html=1;points=[];perimeter=orthogonalPerimeter;rounded=0;shadow=0;comic=0;labelBackgroundColor=none;strokeWidth=1;fontFamily=Verdana;fontSize=10;align=center;horizontal=0;verticalAlign=middle;spacingTop=0;spacingBottom=2;" parent="7baba1c4bc27f4b0-8" vertex="1">
          <mxGeometry x="90" y="50" width="10" height="502" as="geometry" />
        </mxCell>
        <mxCell id="7baba1c4bc27f4b0-26" value="START_READ_SERVICES" style="html=1;verticalAlign=bottom;endArrow=block;entryX=0.033;entryY=-0.002;labelBackgroundColor=none;fontFamily=Verdana;fontSize=12;entryDx=0;entryDy=0;entryPerimeter=0;" parent="1" target="adKXQhIe3tN8fhiwJf8t-1" edge="1">
          <mxGeometry x="0.1135" y="3" relative="1" as="geometry">
            <mxPoint x="690" y="234" as="sourcePoint" />
            <mxPoint as="offset" />
          </mxGeometry>
        </mxCell>
        <mxCell id="7baba1c4bc27f4b0-11" value="CREATE_PERIOD_END_CLOSE_CNTRL" style="html=1;verticalAlign=bottom;endArrow=block;entryX=0;entryY=0;labelBackgroundColor=none;fontFamily=Verdana;fontSize=12;edgeStyle=elbowEdgeStyle;elbow=vertical;" parent="1" source="7baba1c4bc27f4b0-9" target="7baba1c4bc27f4b0-10" edge="1">
          <mxGeometry relative="1" as="geometry">
            <mxPoint x="220" y="190" as="sourcePoint" />
          </mxGeometry>
        </mxCell>
        <mxCell id="7baba1c4bc27f4b0-14" value="CREATE_PERIOD_END_CLOSE_CNTRL" style="html=1;verticalAlign=bottom;endArrow=block;entryX=0;entryY=0;labelBackgroundColor=none;fontFamily=Verdana;fontSize=12;edgeStyle=elbowEdgeStyle;elbow=vertical;" parent="1" source="7baba1c4bc27f4b0-10" target="7baba1c4bc27f4b0-13" edge="1">
          <mxGeometry relative="1" as="geometry">
            <mxPoint x="370" y="200" as="sourcePoint" />
          </mxGeometry>
        </mxCell>
        <mxCell id="7baba1c4bc27f4b0-5" value=":CL_FINS_TRR_READ_SERVICES" style="shape=umlLifeline;perimeter=lifelinePerimeter;whiteSpace=wrap;html=1;container=1;collapsible=0;recursiveResize=0;outlineConnect=0;rounded=1;shadow=0;comic=0;labelBackgroundColor=none;strokeWidth=1;fontFamily=Verdana;fontSize=12;align=center;" parent="1" vertex="1">
          <mxGeometry x="864" y="48" width="210" height="580" as="geometry" />
        </mxCell>
        <mxCell id="adKXQhIe3tN8fhiwJf8t-1" value="" style="html=1;points=[];perimeter=orthogonalPerimeter;rounded=0;shadow=0;comic=0;labelBackgroundColor=none;strokeWidth=1;fontFamily=Verdana;fontSize=12;align=center;" vertex="1" parent="7baba1c4bc27f4b0-5">
          <mxGeometry x="100" y="186" width="10" height="108" as="geometry" />
        </mxCell>
        <mxCell id="adKXQhIe3tN8fhiwJf8t-6" value="READ_PLAN_DATA" style="html=1;verticalAlign=bottom;endArrow=block;labelBackgroundColor=none;fontFamily=Verdana;fontSize=12;entryX=0.1;entryY=0.51;entryDx=0;entryDy=0;entryPerimeter=0;" edge="1" parent="7baba1c4bc27f4b0-5">
          <mxGeometry x="0.0072" relative="1" as="geometry">
            <mxPoint x="-174" y="282" as="sourcePoint" />
            <mxPoint x="101.16999999999996" y="281.99999999999994" as="targetPoint" />
            <mxPoint as="offset" />
          </mxGeometry>
        </mxCell>
        <mxCell id="adKXQhIe3tN8fhiwJf8t-5" value="READ_REV_REC_DATA" style="html=1;verticalAlign=bottom;endArrow=block;labelBackgroundColor=none;fontFamily=Verdana;fontSize=12;entryX=-0.1;entryY=0.38;entryDx=0;entryDy=0;entryPerimeter=0;" edge="1" parent="7baba1c4bc27f4b0-5">
          <mxGeometry x="-0.0054" relative="1" as="geometry">
            <mxPoint x="-174" y="258" as="sourcePoint" />
            <mxPoint x="100" y="257.99999999999994" as="targetPoint" />
            <mxPoint as="offset" />
          </mxGeometry>
        </mxCell>
        <mxCell id="adKXQhIe3tN8fhiwJf8t-3" value="READ_ACTUAL_DATA" style="html=1;verticalAlign=bottom;endArrow=block;labelBackgroundColor=none;fontFamily=Verdana;fontSize=12;entryX=0.167;entryY=0.273;entryDx=0;entryDy=0;entryPerimeter=0;" edge="1" parent="7baba1c4bc27f4b0-5">
          <mxGeometry x="-0.0078" relative="1" as="geometry">
            <mxPoint x="-174" y="228" as="sourcePoint" />
            <mxPoint x="100.00000000000011" y="228.00400000000013" as="targetPoint" />
            <mxPoint as="offset" />
          </mxGeometry>
        </mxCell>
        <mxCell id="7baba1c4bc27f4b0-27" value="mo_rev_rec_data" style="html=1;verticalAlign=bottom;endArrow=open;dashed=1;endSize=8;labelBackgroundColor=none;fontFamily=Verdana;fontSize=12;exitX=0.1;exitY=0.123;exitDx=0;exitDy=0;exitPerimeter=0;" parent="7baba1c4bc27f4b0-5" edge="1">
          <mxGeometry x="-0.012" y="-1" relative="1" as="geometry">
            <mxPoint x="-174" y="204" as="targetPoint" />
            <mxPoint x="100" y="204.004" as="sourcePoint" />
            <Array as="points" />
            <mxPoint as="offset" />
          </mxGeometry>
        </mxCell>
        <mxCell id="adKXQhIe3tN8fhiwJf8t-16" value="START_SERVICE" style="html=1;verticalAlign=bottom;endArrow=block;labelBackgroundColor=none;fontFamily=Verdana;fontSize=12;" edge="1" parent="7baba1c4bc27f4b0-5" target="7baba1c4bc27f4b0-7">
          <mxGeometry x="0.0072" relative="1" as="geometry">
            <mxPoint x="-175.16999999999996" y="360" as="sourcePoint" />
            <mxPoint x="100" y="359.99999999999994" as="targetPoint" />
            <mxPoint as="offset" />
          </mxGeometry>
        </mxCell>
        <mxCell id="adKXQhIe3tN8fhiwJf8t-8" value="ro_instance" style="html=1;verticalAlign=bottom;endArrow=open;dashed=1;endSize=8;labelBackgroundColor=none;fontFamily=Verdana;fontSize=12;entryX=0.967;entryY=0.987;entryDx=0;entryDy=0;entryPerimeter=0;" edge="1" parent="1" target="7baba1c4bc27f4b0-9">
          <mxGeometry x="0.0238" relative="1" as="geometry">
            <mxPoint x="-66.00000000000011" y="542.6600000000001" as="targetPoint" />
            <mxPoint x="78" y="594" as="sourcePoint" />
            <Array as="points" />
            <mxPoint as="offset" />
          </mxGeometry>
        </mxCell>
        <mxCell id="adKXQhIe3tN8fhiwJf8t-9" value="ro_instance" style="html=1;verticalAlign=bottom;endArrow=open;dashed=1;endSize=8;labelBackgroundColor=none;fontFamily=Verdana;fontSize=12;entryX=0.917;entryY=0.964;entryDx=0;entryDy=0;entryPerimeter=0;exitX=0.133;exitY=0.962;exitDx=0;exitDy=0;exitPerimeter=0;" edge="1" parent="1" source="7baba1c4bc27f4b0-13" target="7baba1c4bc27f4b0-10">
          <mxGeometry x="0.0238" relative="1" as="geometry">
            <mxPoint x="88.5" y="582" as="targetPoint" />
            <mxPoint x="354.5" y="583" as="sourcePoint" />
            <Array as="points" />
            <mxPoint as="offset" />
          </mxGeometry>
        </mxCell>
        <mxCell id="adKXQhIe3tN8fhiwJf8t-13" value="START_SERVICE" style="endArrow=classic;html=1;rounded=0;entryX=0.1;entryY=0.001;entryDx=0;entryDy=0;entryPerimeter=0;verticalAlign=bottom;" edge="1" parent="1" target="7baba1c4bc27f4b0-16">
          <mxGeometry width="50" height="50" relative="1" as="geometry">
            <mxPoint x="396" y="186" as="sourcePoint" />
            <mxPoint x="530" y="198" as="targetPoint" />
          </mxGeometry>
        </mxCell>
        <mxCell id="adKXQhIe3tN8fhiwJf8t-17" value="mo_revenue = ro_close_cos_rev" style="html=1;verticalAlign=bottom;endArrow=open;dashed=1;endSize=8;labelBackgroundColor=none;fontFamily=Verdana;fontSize=12;exitX=0.033;exitY=0.799;exitDx=0;exitDy=0;exitPerimeter=0;" edge="1" parent="1" source="7baba1c4bc27f4b0-25">
          <mxGeometry x="0.3269" y="-2" relative="1" as="geometry">
            <mxPoint x="690" y="446" as="targetPoint" />
            <mxPoint x="982" y="438" as="sourcePoint" />
            <Array as="points" />
            <mxPoint as="offset" />
          </mxGeometry>
        </mxCell>
        <mxCell id="adKXQhIe3tN8fhiwJf8t-18" value="EXTRACT_CUMMULATED_VALUES" style="html=1;verticalAlign=bottom;endArrow=block;labelBackgroundColor=none;fontFamily=Verdana;fontSize=12;" edge="1" parent="1">
          <mxGeometry x="0.0072" relative="1" as="geometry">
            <mxPoint x="690" y="474" as="sourcePoint" />
            <mxPoint x="1207.17" y="474" as="targetPoint" />
            <mxPoint as="offset" />
          </mxGeometry>
        </mxCell>
        <mxCell id="adKXQhIe3tN8fhiwJf8t-20" value="Process EBRR postings" style="html=1;verticalAlign=bottom;endArrow=block;labelBackgroundColor=none;fontFamily=Verdana;fontSize=12;elbow=vertical;edgeStyle=orthogonalEdgeStyle;curved=0;exitX=0.933;exitY=0.025;exitDx=0;exitDy=0;exitPerimeter=0;rounded=1;" edge="1" parent="1">
          <mxGeometry x="-0.4573" relative="1" as="geometry">
            <mxPoint x="1212" y="474" as="sourcePoint" />
            <mxPoint x="1212" y="486" as="targetPoint" />
            <Array as="points">
              <mxPoint x="1267" y="474" />
              <mxPoint x="1405" y="474" />
              <mxPoint x="1405" y="486" />
            </Array>
            <mxPoint as="offset" />
          </mxGeometry>
        </mxCell>
        <mxCell id="adKXQhIe3tN8fhiwJf8t-22" value="Process Plan data" style="html=1;verticalAlign=bottom;endArrow=block;labelBackgroundColor=none;fontFamily=Verdana;fontSize=12;elbow=vertical;edgeStyle=orthogonalEdgeStyle;curved=0;exitX=0.933;exitY=0.025;exitDx=0;exitDy=0;exitPerimeter=0;rounded=1;" edge="1" parent="1">
          <mxGeometry x="-0.5176" relative="1" as="geometry">
            <mxPoint x="1212" y="558" as="sourcePoint" />
            <mxPoint x="1212" y="570" as="targetPoint" />
            <Array as="points">
              <mxPoint x="1267" y="558" />
              <mxPoint x="1405" y="558" />
              <mxPoint x="1405" y="570" />
            </Array>
            <mxPoint as="offset" />
          </mxGeometry>
        </mxCell>
      </root>
    </mxGraphModel>
  </diagram>
  <diagram id="7DDJm00QHUqWDouhGNOm" name="PECRUN - Create items">
    <mxGraphModel dx="2708" dy="1315" grid="1" gridSize="6" guides="1" tooltips="1" connect="1" arrows="1" fold="1" page="1" pageScale="1" pageWidth="850" pageHeight="1100" math="0" shadow="0">
      <root>
        <mxCell id="0" />
        <mxCell id="1" parent="0" />
      </root>
    </mxGraphModel>
  </diagram>
</mxfile>
